<mxfile host="app.diagrams.net" agent="Mozilla/5.0 (Windows NT 10.0; Win64; x64) AppleWebKit/537.36 (KHTML, like Gecko) Chrome/140.0.0.0 Safari/537.36 Edg/140.0.0.0" version="28.2.5">
  <diagram name="Página-1" id="4B2mdKjwGdEC_sC8zcNu">
    <mxGraphModel dx="473" dy="262" grid="1" gridSize="10" guides="1" tooltips="1" connect="1" arrows="1" fold="1" page="1" pageScale="1" pageWidth="827" pageHeight="1169" math="0" shadow="0">
      <root>
        <mxCell id="0" />
        <mxCell id="1" parent="0" />
        <mxCell id="M3UQZhZ2mFmPPDj8TiNQ-1" value="Inicio" style="ellipse;whiteSpace=wrap;html=1;" vertex="1" parent="1">
          <mxGeometry x="40" y="9.67" width="100" height="30" as="geometry" />
        </mxCell>
        <mxCell id="M3UQZhZ2mFmPPDj8TiNQ-11" value="" style="edgeStyle=orthogonalEdgeStyle;rounded=0;orthogonalLoop=1;jettySize=auto;html=1;" edge="1" parent="1" source="M3UQZhZ2mFmPPDj8TiNQ-2" target="M3UQZhZ2mFmPPDj8TiNQ-10">
          <mxGeometry relative="1" as="geometry" />
        </mxCell>
        <mxCell id="M3UQZhZ2mFmPPDj8TiNQ-2" value="LER n=0;" style="shape=parallelogram;perimeter=parallelogramPerimeter;whiteSpace=wrap;html=1;fixedSize=1;" vertex="1" parent="1">
          <mxGeometry x="10" y="70" width="210" height="30" as="geometry" />
        </mxCell>
        <mxCell id="M3UQZhZ2mFmPPDj8TiNQ-3" value="Fim" style="ellipse;whiteSpace=wrap;html=1;" vertex="1" parent="1">
          <mxGeometry x="70" y="420" width="100" height="30" as="geometry" />
        </mxCell>
        <mxCell id="M3UQZhZ2mFmPPDj8TiNQ-12" value="" style="edgeStyle=orthogonalEdgeStyle;rounded=0;orthogonalLoop=1;jettySize=auto;html=1;" edge="1" parent="1" source="M3UQZhZ2mFmPPDj8TiNQ-4" target="M3UQZhZ2mFmPPDj8TiNQ-3">
          <mxGeometry relative="1" as="geometry">
            <Array as="points">
              <mxPoint x="370" y="400" />
              <mxPoint x="120" y="400" />
            </Array>
          </mxGeometry>
        </mxCell>
        <mxCell id="M3UQZhZ2mFmPPDj8TiNQ-4" value="Escrever &quot;Meteste água. Aguarda processo de secagem.&quot;" style="shape=parallelogram;perimeter=parallelogramPerimeter;whiteSpace=wrap;html=1;fixedSize=1;" vertex="1" parent="1">
          <mxGeometry x="380" y="390" width="220" height="30" as="geometry" />
        </mxCell>
        <mxCell id="M3UQZhZ2mFmPPDj8TiNQ-5" style="edgeStyle=orthogonalEdgeStyle;rounded=0;orthogonalLoop=1;jettySize=auto;html=1;entryX=0.463;entryY=0.011;entryDx=0;entryDy=0;entryPerimeter=0;" edge="1" parent="1" source="M3UQZhZ2mFmPPDj8TiNQ-1">
          <mxGeometry relative="1" as="geometry">
            <mxPoint x="107.23000000000002" y="69.99999999999999" as="targetPoint" />
          </mxGeometry>
        </mxCell>
        <mxCell id="M3UQZhZ2mFmPPDj8TiNQ-14" value="" style="edgeStyle=orthogonalEdgeStyle;rounded=0;orthogonalLoop=1;jettySize=auto;html=1;" edge="1" parent="1" source="M3UQZhZ2mFmPPDj8TiNQ-10" target="M3UQZhZ2mFmPPDj8TiNQ-13">
          <mxGeometry relative="1" as="geometry" />
        </mxCell>
        <mxCell id="M3UQZhZ2mFmPPDj8TiNQ-10" value="Escrever &quot;Quantos anos tens? :&quot; &amp;amp;&amp;amp; LER n" style="shape=parallelogram;perimeter=parallelogramPerimeter;whiteSpace=wrap;html=1;fixedSize=1;" vertex="1" parent="1">
          <mxGeometry x="10" y="130" width="270" height="30" as="geometry" />
        </mxCell>
        <mxCell id="M3UQZhZ2mFmPPDj8TiNQ-27" style="edgeStyle=orthogonalEdgeStyle;rounded=0;orthogonalLoop=1;jettySize=auto;html=1;entryX=0;entryY=0.5;entryDx=0;entryDy=0;" edge="1" parent="1" source="M3UQZhZ2mFmPPDj8TiNQ-13" target="M3UQZhZ2mFmPPDj8TiNQ-18">
          <mxGeometry relative="1" as="geometry" />
        </mxCell>
        <mxCell id="M3UQZhZ2mFmPPDj8TiNQ-28" value="Não" style="edgeLabel;html=1;align=center;verticalAlign=middle;resizable=0;points=[];" vertex="1" connectable="0" parent="M3UQZhZ2mFmPPDj8TiNQ-27">
          <mxGeometry x="0.019" relative="1" as="geometry">
            <mxPoint as="offset" />
          </mxGeometry>
        </mxCell>
        <mxCell id="M3UQZhZ2mFmPPDj8TiNQ-37" value="" style="edgeStyle=orthogonalEdgeStyle;rounded=0;orthogonalLoop=1;jettySize=auto;html=1;" edge="1" parent="1" source="M3UQZhZ2mFmPPDj8TiNQ-13" target="M3UQZhZ2mFmPPDj8TiNQ-36">
          <mxGeometry relative="1" as="geometry" />
        </mxCell>
        <mxCell id="M3UQZhZ2mFmPPDj8TiNQ-38" value="Sim" style="edgeLabel;html=1;align=center;verticalAlign=middle;resizable=0;points=[];" vertex="1" connectable="0" parent="M3UQZhZ2mFmPPDj8TiNQ-37">
          <mxGeometry x="0.2022" y="1" relative="1" as="geometry">
            <mxPoint as="offset" />
          </mxGeometry>
        </mxCell>
        <mxCell id="M3UQZhZ2mFmPPDj8TiNQ-13" value="n &amp;gt;= 0 &amp;amp;&amp;amp; n &amp;lt;= 17" style="rhombus;whiteSpace=wrap;html=1;" vertex="1" parent="1">
          <mxGeometry x="10" y="190" width="110" height="110" as="geometry" />
        </mxCell>
        <mxCell id="M3UQZhZ2mFmPPDj8TiNQ-29" style="edgeStyle=orthogonalEdgeStyle;rounded=0;orthogonalLoop=1;jettySize=auto;html=1;entryX=0;entryY=0.5;entryDx=0;entryDy=0;" edge="1" parent="1" source="M3UQZhZ2mFmPPDj8TiNQ-18" target="M3UQZhZ2mFmPPDj8TiNQ-19">
          <mxGeometry relative="1" as="geometry" />
        </mxCell>
        <mxCell id="M3UQZhZ2mFmPPDj8TiNQ-30" value="Não" style="edgeLabel;html=1;align=center;verticalAlign=middle;resizable=0;points=[];" vertex="1" connectable="0" parent="M3UQZhZ2mFmPPDj8TiNQ-29">
          <mxGeometry x="-0.3467" y="-1" relative="1" as="geometry">
            <mxPoint as="offset" />
          </mxGeometry>
        </mxCell>
        <mxCell id="M3UQZhZ2mFmPPDj8TiNQ-40" value="" style="edgeStyle=orthogonalEdgeStyle;rounded=0;orthogonalLoop=1;jettySize=auto;html=1;" edge="1" parent="1" source="M3UQZhZ2mFmPPDj8TiNQ-18" target="M3UQZhZ2mFmPPDj8TiNQ-39">
          <mxGeometry relative="1" as="geometry" />
        </mxCell>
        <mxCell id="M3UQZhZ2mFmPPDj8TiNQ-41" value="Sim" style="edgeLabel;html=1;align=center;verticalAlign=middle;resizable=0;points=[];" vertex="1" connectable="0" parent="M3UQZhZ2mFmPPDj8TiNQ-40">
          <mxGeometry x="-0.62" y="1" relative="1" as="geometry">
            <mxPoint as="offset" />
          </mxGeometry>
        </mxCell>
        <mxCell id="M3UQZhZ2mFmPPDj8TiNQ-18" value="n &amp;gt;= 18 &amp;amp;&amp;amp; n &amp;lt;= 65" style="rhombus;whiteSpace=wrap;html=1;" vertex="1" parent="1">
          <mxGeometry x="190" y="190" width="110" height="110" as="geometry" />
        </mxCell>
        <mxCell id="M3UQZhZ2mFmPPDj8TiNQ-50" style="edgeStyle=orthogonalEdgeStyle;rounded=0;orthogonalLoop=1;jettySize=auto;html=1;entryX=0.5;entryY=0;entryDx=0;entryDy=0;" edge="1" parent="1" source="M3UQZhZ2mFmPPDj8TiNQ-19" target="M3UQZhZ2mFmPPDj8TiNQ-49">
          <mxGeometry relative="1" as="geometry" />
        </mxCell>
        <mxCell id="M3UQZhZ2mFmPPDj8TiNQ-57" value="Sim" style="edgeLabel;html=1;align=center;verticalAlign=middle;resizable=0;points=[];" vertex="1" connectable="0" parent="M3UQZhZ2mFmPPDj8TiNQ-50">
          <mxGeometry x="-0.6422" y="2" relative="1" as="geometry">
            <mxPoint as="offset" />
          </mxGeometry>
        </mxCell>
        <mxCell id="M3UQZhZ2mFmPPDj8TiNQ-52" style="edgeStyle=orthogonalEdgeStyle;rounded=0;orthogonalLoop=1;jettySize=auto;html=1;entryX=0;entryY=0.5;entryDx=0;entryDy=0;" edge="1" parent="1" source="M3UQZhZ2mFmPPDj8TiNQ-19" target="M3UQZhZ2mFmPPDj8TiNQ-51">
          <mxGeometry relative="1" as="geometry" />
        </mxCell>
        <mxCell id="M3UQZhZ2mFmPPDj8TiNQ-54" value="Não" style="edgeLabel;html=1;align=center;verticalAlign=middle;resizable=0;points=[];" vertex="1" connectable="0" parent="M3UQZhZ2mFmPPDj8TiNQ-52">
          <mxGeometry x="-0.0568" y="1" relative="1" as="geometry">
            <mxPoint as="offset" />
          </mxGeometry>
        </mxCell>
        <mxCell id="M3UQZhZ2mFmPPDj8TiNQ-19" value="n &amp;gt;= 66 &amp;amp;&amp;amp; n &amp;lt;= 149" style="rhombus;whiteSpace=wrap;html=1;" vertex="1" parent="1">
          <mxGeometry x="350" y="190" width="110" height="110" as="geometry" />
        </mxCell>
        <mxCell id="M3UQZhZ2mFmPPDj8TiNQ-61" style="edgeStyle=orthogonalEdgeStyle;rounded=0;orthogonalLoop=1;jettySize=auto;html=1;entryX=0.5;entryY=0;entryDx=0;entryDy=0;" edge="1" parent="1" source="M3UQZhZ2mFmPPDj8TiNQ-36" target="M3UQZhZ2mFmPPDj8TiNQ-3">
          <mxGeometry relative="1" as="geometry">
            <Array as="points">
              <mxPoint x="65" y="400" />
              <mxPoint x="120" y="400" />
            </Array>
          </mxGeometry>
        </mxCell>
        <mxCell id="M3UQZhZ2mFmPPDj8TiNQ-36" value="Escrever &quot;Puto&quot;" style="shape=parallelogram;perimeter=parallelogramPerimeter;whiteSpace=wrap;html=1;fixedSize=1;" vertex="1" parent="1">
          <mxGeometry x="5" y="330" width="120" height="25" as="geometry" />
        </mxCell>
        <mxCell id="M3UQZhZ2mFmPPDj8TiNQ-62" style="edgeStyle=orthogonalEdgeStyle;rounded=0;orthogonalLoop=1;jettySize=auto;html=1;" edge="1" parent="1" source="M3UQZhZ2mFmPPDj8TiNQ-39">
          <mxGeometry relative="1" as="geometry">
            <mxPoint x="120" y="420" as="targetPoint" />
            <Array as="points">
              <mxPoint x="245" y="400" />
              <mxPoint x="120" y="400" />
            </Array>
          </mxGeometry>
        </mxCell>
        <mxCell id="M3UQZhZ2mFmPPDj8TiNQ-39" value="Escrever &quot;Adulto&quot;" style="shape=parallelogram;perimeter=parallelogramPerimeter;whiteSpace=wrap;html=1;fixedSize=1;" vertex="1" parent="1">
          <mxGeometry x="185" y="330" width="120" height="25" as="geometry" />
        </mxCell>
        <mxCell id="M3UQZhZ2mFmPPDj8TiNQ-63" style="edgeStyle=orthogonalEdgeStyle;rounded=0;orthogonalLoop=1;jettySize=auto;html=1;" edge="1" parent="1" source="M3UQZhZ2mFmPPDj8TiNQ-49">
          <mxGeometry relative="1" as="geometry">
            <mxPoint x="120" y="420" as="targetPoint" />
            <Array as="points">
              <mxPoint x="380" y="400" />
              <mxPoint x="120" y="400" />
            </Array>
          </mxGeometry>
        </mxCell>
        <mxCell id="M3UQZhZ2mFmPPDj8TiNQ-49" value="Escrever &quot;Velhinho&quot;" style="shape=parallelogram;perimeter=parallelogramPerimeter;whiteSpace=wrap;html=1;fixedSize=1;" vertex="1" parent="1">
          <mxGeometry x="337.5" y="330" width="135" height="25" as="geometry" />
        </mxCell>
        <mxCell id="M3UQZhZ2mFmPPDj8TiNQ-59" style="edgeStyle=orthogonalEdgeStyle;rounded=0;orthogonalLoop=1;jettySize=auto;html=1;" edge="1" parent="1" source="M3UQZhZ2mFmPPDj8TiNQ-51" target="M3UQZhZ2mFmPPDj8TiNQ-58">
          <mxGeometry relative="1" as="geometry">
            <Array as="points">
              <mxPoint x="660" y="245" />
            </Array>
          </mxGeometry>
        </mxCell>
        <mxCell id="M3UQZhZ2mFmPPDj8TiNQ-60" value="Sim" style="edgeLabel;html=1;align=center;verticalAlign=middle;resizable=0;points=[];" vertex="1" connectable="0" parent="M3UQZhZ2mFmPPDj8TiNQ-59">
          <mxGeometry x="0.1167" y="-1" relative="1" as="geometry">
            <mxPoint as="offset" />
          </mxGeometry>
        </mxCell>
        <mxCell id="M3UQZhZ2mFmPPDj8TiNQ-51" value="n &amp;gt; 149" style="rhombus;whiteSpace=wrap;html=1;" vertex="1" parent="1">
          <mxGeometry x="500" y="190" width="110" height="110" as="geometry" />
        </mxCell>
        <mxCell id="M3UQZhZ2mFmPPDj8TiNQ-55" style="edgeStyle=orthogonalEdgeStyle;rounded=0;orthogonalLoop=1;jettySize=auto;html=1;entryX=0.505;entryY=-0.063;entryDx=0;entryDy=0;entryPerimeter=0;" edge="1" parent="1" source="M3UQZhZ2mFmPPDj8TiNQ-51" target="M3UQZhZ2mFmPPDj8TiNQ-4">
          <mxGeometry relative="1" as="geometry" />
        </mxCell>
        <mxCell id="M3UQZhZ2mFmPPDj8TiNQ-56" value="Não" style="edgeLabel;html=1;align=center;verticalAlign=middle;resizable=0;points=[];" vertex="1" connectable="0" parent="M3UQZhZ2mFmPPDj8TiNQ-55">
          <mxGeometry x="-0.1458" relative="1" as="geometry">
            <mxPoint as="offset" />
          </mxGeometry>
        </mxCell>
        <mxCell id="M3UQZhZ2mFmPPDj8TiNQ-58" value="Escrever &quot;Dinossauro.&quot;" style="shape=parallelogram;perimeter=parallelogramPerimeter;whiteSpace=wrap;html=1;fixedSize=1;" vertex="1" parent="1">
          <mxGeometry x="570" y="330" width="160" height="25" as="geometry" />
        </mxCell>
        <mxCell id="M3UQZhZ2mFmPPDj8TiNQ-65" style="edgeStyle=orthogonalEdgeStyle;rounded=0;orthogonalLoop=1;jettySize=auto;html=1;entryX=1.003;entryY=0.622;entryDx=0;entryDy=0;entryPerimeter=0;" edge="1" parent="1" source="M3UQZhZ2mFmPPDj8TiNQ-58" target="M3UQZhZ2mFmPPDj8TiNQ-3">
          <mxGeometry relative="1" as="geometry">
            <Array as="points">
              <mxPoint x="660" y="439" />
              <mxPoint x="370" y="439" />
            </Array>
          </mxGeometry>
        </mxCell>
      </root>
    </mxGraphModel>
  </diagram>
</mxfile>
